<svg width="51" height="51" viewBox="0 0 51 51" fill="none" xmlns="http://www.w3.org/2000/svg">
    <path d="M8.78241 22.9567L8.6586 22.9354L8.78241 22.9567ZM8.053 21.6404L8.03169 21.7642L8.053 21.6404ZM8.5353 24.3921L8.51398 24.5159L8.63779 24.5372L8.6591 24.4134L8.5353 24.3921ZM5.17563 23.8138L5.05183 23.7924L5.03051 23.9162L5.15432 23.9376L5.17563 23.8138ZM5.40721 22.4686L5.53101 22.4899L5.40721 22.4686ZM6.46049 21.5013L6.4818 21.3775H6.4818L6.46049 21.5013ZM7.0778 22.2326L6.95234 22.239L6.95748 22.3393L7.05648 22.3564L7.0778 22.2326ZM7.11061 22.2382L7.08929 22.362L7.20739 22.3823L7.23327 22.2653L7.11061 22.2382ZM6.79444 22.8189L6.91825 22.8402L6.79444 22.8189ZM6.70379 23.3455L6.68248 23.4693L6.80628 23.4906L6.82759 23.3668L6.70379 23.3455ZM6.45519 22.2385L6.43387 22.3623H6.43388L6.45519 22.2385ZM5.96499 22.6626L5.84119 22.6413L5.96499 22.6626ZM5.87208 23.2023L5.74827 23.181L5.72696 23.3048L5.85076 23.3261L5.87208 23.2023ZM8.17655 23.0028L8.05274 22.9814L8.17655 23.0028ZM8.07686 23.5818L8.05554 23.7056L8.17935 23.727L8.20066 23.6031L8.07686 23.5818ZM7.85623 22.3615L7.87754 22.2377H7.87754L7.85623 22.3615ZM7.28696 22.8327L7.41076 22.854H7.41077L7.28696 22.8327ZM7.18445 23.4282L7.06064 23.4069L7.03933 23.5307L7.16313 23.552L7.18445 23.4282ZM9.57418 19.5412L9.69137 19.5865L9.73664 19.4693L9.61946 19.424L9.57418 19.5412ZM6.39418 18.3126L6.43946 18.1954L6.32227 18.1501L6.277 18.2673L6.39418 18.3126ZM9.31442 20.2135L9.26915 20.3307L9.38633 20.376L9.43161 20.2588L9.31442 20.2135ZM6.13442 18.9849L6.01724 18.9396L5.97197 19.0568L6.08915 19.1021L6.13442 18.9849ZM11.1302 16.5398L11.2365 16.6068L11.3035 16.5005L11.1972 16.4335L11.1302 16.5398ZM8.74918 15.0384L8.64291 14.9714L8.57591 15.0777L8.68217 15.1447L8.74918 15.0384ZM10.7502 17.1424L10.6832 17.2487L10.7895 17.3157L10.8565 17.2094L10.7502 17.1424ZM8.36918 15.6411L8.43619 15.5348L8.32992 15.4678L8.26292 15.5741L8.36918 15.6411ZM7.81251 16.5239L7.7455 16.6302L7.85177 16.6972L7.91877 16.5909L7.81251 16.5239ZM7.30983 16.207L7.20357 16.14L7.13657 16.2462L7.24283 16.3132L7.30983 16.207ZM8.80318 13.8386L8.87018 13.7324L8.76392 13.6654L8.69691 13.7716L8.80318 13.8386ZM9.30585 14.1556L9.41212 14.2226L9.47912 14.1163L9.37286 14.0493L9.30585 14.1556ZM13.6775 13.4498L13.7633 13.5416L13.6775 13.4498ZM13.933 11.5564L14.0347 11.4826L13.9515 11.368L13.8476 11.4642L13.933 11.5564ZM11.3216 13.2554L11.2298 13.3412L11.3216 13.2554ZM11.2855 10.8917L11.1997 10.7999L11.2855 10.8917ZM13.2133 10.7868L13.2992 10.8785L13.4026 10.7818L13.2942 10.6906L13.2133 10.7868ZM12.6808 11.2847L12.6025 11.3829L12.6873 11.4506L12.7666 11.3765L12.6808 11.2847ZM11.7331 11.346L11.8189 11.4377L11.7331 11.346ZM11.8553 12.7563L11.9471 12.6705L11.8553 12.7563ZM13.2506 12.9762L13.1648 12.8844L13.2506 12.9762ZM13.3982 12.0519L13.3128 11.9598L13.236 12.031L13.2922 12.1194L13.3982 12.0519ZM17.3861 10.6632L17.4437 10.7749L17.3861 10.6632ZM18.0034 8.37545L18.1151 8.31793L18.0034 8.37545ZM15.1651 9.8374L15.2768 9.77987L15.1651 9.8374ZM15.7824 7.54965L15.8399 7.66133V7.66133L15.7824 7.54965ZM17.0942 10.0964L17.0367 9.98475L17.0942 10.0964ZM15.8148 9.50278L15.7031 9.56031L15.8148 9.50278ZM17.3538 8.71007L17.4655 8.65254L17.3538 8.71007ZM16.0743 8.11642L16.1319 8.2281V8.2281L16.0743 8.11642ZM20.999 8.99554L21.0314 9.11691L21.1528 9.08447L21.1203 8.96311L20.999 8.99554ZM20.1187 5.70206L20.2401 5.66963L20.2076 5.54826L20.0863 5.5807L20.1187 5.70206ZM20.3027 9.18165L20.1813 9.21409L20.2137 9.33546L20.3351 9.30302L20.3027 9.18165ZM19.4224 5.88818L19.39 5.76681L19.2686 5.79925L19.301 5.92061L19.4224 5.88818ZM23.4352 8.56147L23.442 8.68691L23.5674 8.68015L23.5607 8.55471L23.4352 8.56147ZM23.3198 6.41891L23.3131 6.29347L23.1876 6.30022L23.1944 6.42567L23.3198 6.41891ZM22.7155 8.60023L22.5901 8.60699L22.5968 8.73243L22.7223 8.72568L22.7155 8.60023ZM22.5322 5.19608L22.5254 5.07064L22.4 5.07739L22.4067 5.20284L22.5322 5.19608ZM23.1638 5.16206L23.2634 5.0855L23.2231 5.03306L23.157 5.03661L23.1638 5.16206ZM24.7485 7.22381L24.6489 7.30036L24.6892 7.35281L24.7552 7.34925L24.7485 7.22381ZM24.7784 7.2222L24.7851 7.34764L24.9106 7.34088L24.9038 7.21544L24.7784 7.2222ZM24.6631 5.0813L24.6563 4.95586L24.5309 4.96262L24.5376 5.08806L24.6631 5.0813ZM25.3795 5.04272L25.5049 5.03596L25.4982 4.91052L25.3727 4.91727L25.3795 5.04272ZM25.5628 8.44687L25.5696 8.57231L25.695 8.56556L25.6883 8.44011L25.5628 8.44687ZM24.9412 8.48035L24.8418 8.55724L24.8821 8.60934L24.9479 8.6058L24.9412 8.48035ZM23.3448 6.41757L23.4441 6.34068L23.4038 6.28858L23.338 6.29212L23.3448 6.41757ZM30.6649 9.1965L30.6226 9.31476V9.31476L30.6649 9.1965ZM32.8112 8.15131L32.6929 8.10894L32.8112 8.15131ZM29.5273 8.78886L29.409 8.74649L29.3666 8.86475L29.4849 8.90713L29.5273 8.78886ZM30.6772 5.57956L30.7195 5.4613L30.6013 5.41893L30.5589 5.53719L30.6772 5.57956ZM31.8242 5.99057L31.8666 5.8723L31.8242 5.99057ZM30.845 8.60502L30.8027 8.72328V8.72328L30.845 8.60502ZM30.4141 8.45061L30.2958 8.40824L30.2535 8.5265L30.3717 8.56887L30.4141 8.45061ZM32.1342 7.90875L32.2525 7.95113V7.95113L32.1342 7.90875ZM31.5799 6.55902L31.5375 6.67729L31.5799 6.55902ZM31.1474 6.40406L31.1898 6.28579L31.0715 6.24342L31.0291 6.36168L31.1474 6.40406ZM35.6998 11.6872L35.6294 11.7912L35.7334 11.8617L35.8038 11.7577L35.6998 11.6872ZM36.0333 11.1953L36.1372 11.2658L36.2077 11.1618L36.1037 11.0913L36.0333 11.1953ZM33.7928 10.3947L33.6888 10.3242L33.6183 10.4282L33.7223 10.4987L33.7928 10.3947ZM35.7055 7.57271L35.776 7.46872L35.672 7.39823L35.6015 7.50222L35.7055 7.57271ZM37.607 8.86152L37.711 8.932L37.7815 8.82801L37.6775 8.75753L37.607 8.86152ZM37.2736 9.35343L37.2031 9.45742L37.3071 9.52791L37.3776 9.42392L37.2736 9.35343ZM35.9687 8.46901L36.0392 8.36502L35.9352 8.29454L35.8647 8.39853L35.9687 8.46901ZM35.513 9.14144L35.409 9.07095L35.3385 9.17494L35.4425 9.24543L35.513 9.14144ZM36.72 9.95955L36.824 10.03L36.8945 9.92604L36.7905 9.85556L36.72 9.95955ZM36.3866 10.4515L36.3161 10.5555L36.4201 10.6259L36.4906 10.522L36.3866 10.4515ZM35.1795 9.63335L35.25 9.52936L35.146 9.45888L35.0756 9.56287L35.1795 9.63335ZM34.7229 10.3072L34.6189 10.2367L34.5484 10.3407L34.6524 10.4111L34.7229 10.3072ZM37.9024 13.6841L37.8092 13.7684L37.8092 13.7684L37.9024 13.6841ZM39.5481 13.9797L39.6322 14.0731L39.6327 14.0726L39.5481 13.9797ZM37.8105 11.9153L37.9036 11.831L37.8172 11.7355L37.7239 11.8243L37.8105 11.9153ZM38.2784 12.4325L38.3689 12.5197L38.4503 12.4352L38.3716 12.3482L38.2784 12.4325ZM38.3449 13.2726L38.438 13.1883L38.438 13.1883L38.3449 13.2726ZM39.0613 13.4392L39.145 13.5329L39.1463 13.5317L39.0613 13.4392ZM38.9886 12.7237L38.8778 12.7828L38.8783 12.7837L38.9886 12.7237ZM38.8087 12.3859L38.9196 12.3269L38.919 12.3257L38.8087 12.3859ZM38.8743 11.074L38.9583 11.1674L38.9591 11.1667L38.8743 11.074ZM40.5062 11.3394L40.4131 11.4237L40.4131 11.4237L40.5062 11.3394ZM40.5957 12.969L40.5025 13.0533L40.5882 13.148L40.6815 13.0608L40.5957 12.969ZM40.1322 12.4568L40.0391 12.3724L39.9627 12.4567L40.039 12.5411L40.1322 12.4568ZM40.056 11.74L40.1492 11.6557L40.1492 11.6557L40.056 11.74ZM39.4059 11.5896L39.4883 11.6845L39.4902 11.6828L39.4059 11.5896ZM39.4543 12.2732L39.5645 12.2129L39.564 12.212L39.4543 12.2732ZM39.6055 12.5495L39.4953 12.6098L39.4961 12.6113L39.6055 12.5495ZM40.2525 16.5071L40.1448 16.5716L40.2094 16.6794L40.3171 16.6148L40.2525 16.5071ZM43.1766 14.7544L43.2412 14.8622L43.3489 14.7976L43.2844 14.6898L43.1766 14.7544ZM39.882 15.8888L39.8174 15.7811L39.7097 15.8457L39.7742 15.9534L39.882 15.8888ZM42.8061 14.1362L42.9138 14.0716L42.8492 13.9639L42.7415 14.0285L42.8061 14.1362ZM41.5573 19.5243L41.6762 19.4838H41.6762L41.5573 19.5243ZM43.398 20.4543L43.4386 20.5732L43.398 20.4543ZM42.6913 17.4363L42.7319 17.5552L42.6913 17.4363ZM44.8669 18.3786L44.9858 18.338H44.9858L44.8669 18.3786ZM44.2511 20.1296L44.1322 20.1702L44.1788 20.3067L44.3076 20.2418L44.2511 20.1296ZM44.0145 19.4365L43.9427 19.3334L43.865 19.3875L43.8956 19.4771L44.0145 19.4365ZM44.2673 18.5956L44.3862 18.555L44.3862 18.555L44.2673 18.5956ZM42.9337 18.1257L42.8931 18.0068L42.9337 18.1257ZM42.1617 19.3215L42.2806 19.2809H42.2806L42.1617 19.3215ZM43.0666 19.834L43.1044 19.9538L43.2271 19.9151L43.1855 19.7934L43.0666 19.834ZM42.83 19.1408L42.7894 19.0219L42.6705 19.0625L42.7111 19.1814L42.83 19.1408ZM43.3436 18.9655L43.4624 18.9249L43.4219 18.806L43.303 18.8466L43.3436 18.9655ZM43.8045 20.3155L43.8451 20.4344L43.964 20.3938L43.9234 20.275L43.8045 20.3155ZM42.5881 23.2486L42.4626 23.2556L42.4697 23.381L42.5951 23.374L42.5881 23.2486ZM44.7303 23.1281L44.8558 23.121L44.8487 22.9956L44.7233 23.0027L44.7303 23.1281ZM42.5476 22.5289L42.5405 22.4035L42.4151 22.4106L42.4222 22.536L42.5476 22.5289ZM45.9513 22.3375L46.0767 22.3304L46.0697 22.205L45.9442 22.2121L45.9513 22.3375ZM45.9868 22.9691L46.0636 23.0685L46.116 23.028L46.1122 22.962L45.9868 22.9691ZM43.9288 24.5586L43.852 24.4592L43.7997 24.4996L43.8034 24.5657L43.9288 24.5586ZM43.9305 24.5885L43.8051 24.5956L43.8121 24.721L43.9376 24.714L43.9305 24.5885ZM46.0711 24.4681L46.1966 24.4611L46.1895 24.3357L46.0641 24.3427L46.0711 24.4681ZM46.1114 25.1845L46.1185 25.3099L46.2439 25.3028L46.2368 25.1774L46.1114 25.1845ZM42.7077 25.3759L42.5823 25.3829L42.5893 25.5084L42.7148 25.5013L42.7077 25.3759ZM42.6727 24.7543L42.5956 24.6551L42.5436 24.6956L42.5473 24.7614L42.6727 24.7543ZM44.7317 23.153L44.8089 23.2522L44.8609 23.2117L44.8572 23.1459L44.7317 23.153ZM11.7408 39.1274L11.8111 39.2315L11.9285 39.1523L11.8358 39.0452L11.7408 39.1274ZM9.85715 38.8078L9.95177 38.7252H9.95177L9.85715 38.8078ZM11.2637 38.5761L11.3587 38.4939L11.2901 38.4146L11.1999 38.4679L11.2637 38.5761ZM10.345 38.3972L10.2504 38.4799H10.2504L10.345 38.3972ZM10.6121 37.0102L10.6948 37.1048L10.6121 37.0102ZM12.0257 36.9358L11.9311 37.0185H11.9311L12.0257 36.9358ZM12.0548 37.8851L11.9593 37.8035L11.8888 37.886L11.9602 37.9678L12.0548 37.8851ZM12.5344 38.4342L12.4398 38.5169L12.533 38.6236L12.6278 38.5183L12.5344 38.4342ZM12.495 36.5039L12.4003 36.5865L12.495 36.5039ZM10.1314 36.4598L10.214 36.5544L10.1314 36.4598ZM15.5587 41.5651L15.6605 41.6387L15.5587 41.5651ZM13.2394 42.0506L13.3129 41.9487L13.2394 42.0506ZM15.2894 39.2109L15.3629 39.1091L15.2894 39.2109ZM12.9701 39.6964L12.8682 39.6228L12.9701 39.6964ZM13.5626 40.1241L13.4607 40.0506H13.4607L13.5626 40.1241ZM13.6125 41.5337L13.539 41.6355H13.539L13.6125 41.5337ZM14.9162 39.7278L14.9897 39.626L14.9162 39.7278ZM14.9662 41.1374L15.068 41.2109H15.068L14.9662 41.1374ZM17.4356 42.0573L17.4819 41.9405L17.365 41.8943L17.3188 42.0111L17.4356 42.0573ZM16.6162 44.1283L16.57 44.2451L16.6868 44.2914L16.733 44.1745L16.6162 44.1283ZM17.462 42.0677L17.5876 42.0673L17.5873 41.9822L17.5082 41.9509L17.462 42.0677ZM17.469 44.4478L17.3434 44.4482L17.3437 44.5333L17.4228 44.5646L17.469 44.4478ZM17.9117 44.623L17.8655 44.7398L17.9445 44.7711L18.003 44.7093L17.9117 44.623ZM19.5423 42.8998L19.5885 42.7829L19.5095 42.7517L19.451 42.8134L19.5423 42.8998ZM19.5686 42.9102L19.6854 42.9564L19.7316 42.8396L19.6148 42.7934L19.5686 42.9102ZM18.7523 44.9734L18.6354 44.9272L18.5892 45.044L18.706 45.0903L18.7523 44.9734ZM19.4024 45.2307L19.3561 45.3475L19.473 45.3937L19.5192 45.2769L19.4024 45.2307ZM20.6566 42.0607L20.7734 42.1069L20.8196 41.9901L20.7028 41.9439L20.6566 42.0607ZM19.83 41.7336L19.8762 41.6168L19.7979 41.5858L19.7395 41.6466L19.83 41.7336ZM18.1144 43.5181L18.0681 43.6349L18.1465 43.6659L18.2049 43.6051L18.1144 43.5181ZM18.0772 43.5034L17.9516 43.5049L17.9526 43.5892L18.031 43.6202L18.0772 43.5034ZM18.0469 41.0281L18.1725 41.0266L18.1715 40.9423L18.0931 40.9113L18.0469 41.0281ZM17.2204 40.7011L17.2666 40.5843L17.1498 40.5381L17.1035 40.6549L17.2204 40.7011ZM15.9661 43.8711L15.8493 43.8249L15.8031 43.9417L15.9199 43.9879L15.9661 43.8711ZM22.0284 43.6767L22.0423 43.5519L21.9175 43.538L21.9035 43.6628L22.0284 43.6767ZM21.7815 45.8902L21.7676 46.0151L21.8925 46.029L21.9064 45.9042L21.7815 45.8902ZM22.0565 43.6799L22.1776 43.6465L22.155 43.5645L22.0704 43.555L22.0565 43.6799ZM22.6883 45.9746L22.5672 46.008L22.5898 46.09L22.6744 46.0995L22.6883 45.9746ZM23.1614 46.0274L23.1475 46.1522L23.232 46.1617L23.2722 46.0867L23.1614 46.0274ZM24.2823 43.9365L24.2963 43.8116L24.2118 43.8022L24.1716 43.8771L24.2823 43.9365ZM24.3105 43.9396L24.4353 43.9535L24.4492 43.8287L24.3244 43.8148L24.3105 43.9396ZM24.0645 46.1449L23.9397 46.1309L23.9257 46.2558L24.0506 46.2697L24.0645 46.1449ZM24.7593 46.2223L24.7454 46.3472L24.8703 46.3611L24.8842 46.2363L24.7593 46.2223ZM25.1372 42.8343L25.2621 42.8482L25.276 42.7233L25.1511 42.7094L25.1372 42.8343ZM24.2538 42.7357L24.2677 42.6109L24.184 42.6015L24.1435 42.6755L24.2538 42.7357ZM23.0669 44.908L23.0529 45.0329L23.1367 45.0422L23.1771 44.9683L23.0669 44.908ZM23.0272 44.9036L22.9064 44.9381L22.9295 45.0191L23.0132 45.0285L23.0272 44.9036ZM22.348 42.5232L22.4688 42.4887L22.4457 42.4077L22.3619 42.3983L22.348 42.5232ZM21.4646 42.4247L21.4785 42.2998L21.3537 42.2859L21.3397 42.4107L21.4646 42.4247ZM21.0867 45.8127L20.9619 45.7988L20.9479 45.9237L21.0728 45.9376L21.0867 45.8127ZM29.1953 44.8435L29.3198 44.8274L29.1953 44.8435ZM27.9483 46.2186L27.9644 46.3432L27.9483 46.2186ZM28.9058 42.6083L29.0303 42.5922L29.0142 42.4676L28.8896 42.4838L28.9058 42.6083ZM28.1959 42.7003L28.1798 42.5757L28.0552 42.5918L28.0713 42.7164L28.1959 42.7003ZM28.4822 44.9107L28.6068 44.8946L28.4822 44.9107ZM27.8658 45.5814L27.8496 45.4568L27.8658 45.5814ZM27.1038 45.0892L26.9792 45.1054L27.1038 45.0892ZM26.8175 42.8788L26.9421 42.8627L26.9259 42.7381L26.8014 42.7542L26.8175 42.8788ZM26.1027 42.9714L26.0866 42.8468L25.962 42.8629L25.9781 42.9875L26.1027 42.9714ZM26.3922 45.2066L26.5168 45.1904L26.3922 45.2066ZM31.0084 43.4366L30.9652 43.3186L30.8473 43.3618L30.8905 43.4798L31.0084 43.4366ZM31.7462 45.4514L31.7893 45.5694L31.9073 45.5262L31.8641 45.4082L31.7462 45.4514ZM31.0319 43.428L31.1043 43.3254L31.0505 43.2874L30.9887 43.31L31.0319 43.428ZM33.1623 44.9329L33.0899 45.0355L33.1437 45.0735L33.2055 45.0509L33.1623 44.9329ZM33.7469 44.7188L33.7901 44.8368L33.9081 44.7936L33.8649 44.6757L33.7469 44.7188ZM32.5748 41.5176L32.6928 41.4744L32.6496 41.3564L32.5316 41.3996L32.5748 41.5176ZM31.9011 41.7643L31.8579 41.6463L31.7399 41.6895L31.7831 41.8075L31.9011 41.7643ZM32.6383 43.7776L32.6814 43.8955L32.7994 43.8523L32.7562 43.7344L32.6383 43.7776ZM32.6101 43.7879L32.5373 43.8902L32.5912 43.9286L32.6533 43.9058L32.6101 43.7879ZM30.4912 42.2805L30.564 42.1782L30.5101 42.1398L30.448 42.1626L30.4912 42.2805ZM29.8972 42.498L29.854 42.38L29.736 42.4232L29.7792 42.5412L29.8972 42.498ZM31.0693 45.6992L30.9514 45.7424L30.9946 45.8604L31.1125 45.8172L31.0693 45.6992ZM34.3031 40.7528L34.4119 40.6901L34.3493 40.5812L34.2404 40.6439L34.3031 40.7528ZM36.0035 43.7075L36.0662 43.8163L36.1751 43.7537L36.1124 43.6448L36.0035 43.7075ZM33.6784 41.1123L33.6157 41.0034L33.5068 41.0661L33.5695 41.1749L33.6784 41.1123ZM35.3788 44.067L35.27 44.1297L35.3326 44.2385L35.4415 44.1759L35.3788 44.067ZM36.9831 39.5792L36.9036 39.4818L36.8063 39.5613L36.8858 39.6586L36.9831 39.5792ZM38.7634 41.7595L38.8428 41.8568L38.9401 41.7773L38.8607 41.68L38.7634 41.7595ZM37.7915 38.919L37.871 39.0163L37.9683 38.9369L37.8888 38.8396L37.7915 38.919ZM37.4157 38.4587L37.513 38.3793L37.4335 38.282L37.3362 38.3614L37.4157 38.4587ZM35.247 40.2296L35.1675 40.1322L35.0702 40.2117L35.1496 40.309L35.247 40.2296ZM35.6228 40.6899L35.5255 40.7693L35.6049 40.8666L35.7023 40.7872L35.6228 40.6899ZM36.4312 40.0298L36.5285 39.9503L36.4491 39.853L36.3518 39.9324L36.4312 40.0298ZM38.2115 42.2101L38.1142 42.2895L38.1937 42.3868L38.291 42.3074L38.2115 42.2101ZM40.9413 37.9009L40.8248 37.9478L40.8371 37.9784L40.8629 37.999L40.9413 37.9009ZM41.8827 38.6533L41.9809 38.7317L42.0593 38.6336L41.9612 38.5552L41.8827 38.6533ZM39.996 35.5536L40.1125 35.5066L40.0322 35.3071L39.8979 35.4751L39.996 35.5536ZM39.492 36.1842L39.3938 36.1058L39.3466 36.1649L39.3767 36.2342L39.492 36.1842ZM40.1535 37.7081L40.2516 37.7865L40.2989 37.7274L40.2687 37.6581L40.1535 37.7081ZM40.1327 37.7341L40.1093 37.8575L40.1836 37.8716L40.2308 37.8125L40.1327 37.7341ZM38.5005 37.4247L38.5239 37.3013L38.4496 37.2872L38.4024 37.3463L38.5005 37.4247ZM37.9965 38.0554L37.8983 37.9769L37.764 38.145L37.9764 38.1794L37.9965 38.0554ZM40.4944 38.46L40.5728 38.3619L40.5471 38.3413L40.5145 38.336L40.4944 38.46ZM41.4358 39.2124L41.3574 39.3106L41.4555 39.389L41.534 39.2909L41.4358 39.2124ZM32.6551 23.8222L32.7795 23.8398L32.7796 23.839L32.6551 23.8222ZM29.4889 20.255L29.3667 20.2258L29.3401 20.3372L29.4485 20.374L29.4889 20.255ZM30.6623 26.1211L30.6343 25.9986L30.2982 26.0753L30.6049 26.2328L30.6623 26.1211ZM32.1476 29.9075L32.0285 29.8676L32.0284 29.8679L32.1476 29.9075ZM26.6673 32.0898L26.6893 31.9661L26.5724 31.9453L26.545 32.0609L26.6673 32.0898ZM26.0527 34.6871L26.0232 34.8092L26.1459 34.8388L26.1749 34.716L26.0527 34.6871ZM24.4882 34.3094L24.366 34.28L24.3367 34.402L24.4587 34.4315L24.4882 34.3094ZM25.1028 31.754L25.2249 31.7834L25.2541 31.6621L25.133 31.6321L25.1028 31.754ZM23.8549 31.437L23.8873 31.3156L23.7627 31.2824L23.7328 31.4078L23.8549 31.437ZM23.2403 34.011L23.2109 34.1331L23.3333 34.1626L23.3625 34.0401L23.2403 34.011ZM21.6759 33.6332L21.5536 33.6043L21.5248 33.726L21.6464 33.7554L21.6759 33.6332ZM22.2905 31.0359L22.4127 31.0649L22.4402 30.9486L22.3255 30.9153L22.2905 31.0359ZM21.6247 30.8653L21.654 30.7431L21.654 30.7431L21.6247 30.8653ZM21.1823 30.7562L21.2139 30.6345L21.2108 30.6338L21.1823 30.7562ZM19.1429 30.2805L19.0267 30.2328L18.9707 30.3694L19.1144 30.4029L19.1429 30.2805ZM19.8832 28.4759L19.9143 28.3542L19.8085 28.3272L19.767 28.4283L19.8832 28.4759ZM21.0333 28.7557L21.061 28.6332L20.6379 28.5375L20.9444 28.8445L21.0333 28.7557ZM21.7457 28.378L21.8622 28.4251L21.8659 28.4159L21.8681 28.4063L21.7457 28.378ZM22.6956 24.2745L22.7326 24.1545L22.6036 24.1148L22.5732 24.2462L22.6956 24.2745ZM22.7747 24.2932L22.7512 24.4166L22.7512 24.4166L22.7747 24.2932ZM22.8539 24.3119L22.8169 24.4319L22.9255 24.2086L22.8539 24.3119ZM22.7448 24.2667L22.7761 24.145L22.7761 24.145L22.7448 24.2667ZM22.6956 24.2512L22.5733 24.2223L22.5493 24.3237L22.6445 24.366L22.6956 24.2512ZM23.3893 21.3182L23.5116 21.3471L23.5139 21.3374L23.5146 21.3274L23.3893 21.3182ZM22.6583 20.4275L22.5972 20.3178L22.3196 20.4722L22.6278 20.5494L22.6583 20.4275ZM21.5315 20.1478L21.4093 20.1187L21.3797 20.2431L21.5046 20.2705L21.5315 20.1478ZM21.9273 18.4831L21.9566 18.3609L21.8342 18.3315L21.8051 18.454L21.9273 18.4831ZM24.0831 19.0007L24.0538 19.1228L24.0542 19.1229L24.0831 19.0007ZM24.5883 19.1102L24.6138 18.9872L24.5883 19.1102ZM25.0935 19.2198L25.0646 19.3421L25.1866 19.3709L25.2157 19.249L25.0935 19.2198ZM25.7081 16.6458L25.7373 16.5236L25.6151 16.4945L25.5859 16.6167L25.7081 16.6458ZM27.2912 17.0235L27.4135 17.0525L27.4423 16.9304L27.3204 16.9013L27.2912 17.0235ZM26.6952 19.5416L26.573 19.5126L26.5431 19.6389L26.6703 19.6647L26.6952 19.5416ZM27.9431 19.8214L27.9142 19.9436L28.0364 19.9725L28.0653 19.8503L27.9431 19.8214ZM28.5391 17.3033L28.5685 17.1812L28.4459 17.1516L28.4168 17.2744L28.5391 17.3033ZM30.1035 17.681L30.2257 17.7102L30.2548 17.5883L30.133 17.5589L30.1035 17.681ZM29.135 28.8723L29.2573 28.901L29.2574 28.9008L29.135 28.8723ZM24.6188 29.618L24.65 29.4963L24.6188 29.618ZM25.5661 26.1899L25.5926 26.0671L25.5661 26.1899ZM25.154 26.0978L25.1838 25.9757L25.0607 25.9457L25.0317 26.0691L25.154 26.0978ZM24.3438 29.5484L24.2215 29.5197L24.1931 29.641L24.3141 29.6705L24.3438 29.5484ZM29.5681 23.8222L29.4458 23.7932L29.4458 23.7935L29.5681 23.8222ZM25.7456 24.5717L25.777 24.4501L25.7456 24.5717ZM26.6277 21.4644L26.654 21.3416L26.6277 21.4644ZM26.2855 21.3881L26.3155 21.2662L26.1929 21.236L26.1633 21.3587L26.2855 21.3881ZM25.5312 24.517L25.409 24.4876L25.3798 24.6091L25.5011 24.639L25.5312 24.517ZM25.6533 50.6256C39.5298 50.6256 50.7789 39.3765 50.7789 25.5H50.5277C50.5277 39.2377 39.3911 50.3744 25.6533 50.3744V50.6256ZM0.527695 25.5C0.527695 39.3765 11.7768 50.6256 25.6533 50.6256V50.3744C11.9156 50.3744 0.778945 39.2377 0.778945 25.5H0.527695ZM25.6533 0.374375C11.7768 0.374375 0.527695 11.6235 0.527695 25.5H0.778945C0.778945 11.7623 11.9156 0.625625 25.6533 0.625625V0.374375ZM50.7789 25.5C50.7789 11.6235 39.5298 0.374375 25.6533 0.374375V0.625625C39.3911 0.625625 50.5277 11.7623 50.5277 25.5H50.7789ZM25.6533 49.0631C38.6669 49.0631 49.2164 38.5136 49.2164 25.5H48.9652C48.9652 38.3748 38.5281 48.8119 25.6533 48.8119V49.0631ZM2.0902 25.5C2.0902 38.5136 12.6398 49.0631 25.6533 49.0631V48.8119C12.7785 48.8119 2.34145 38.3748 2.34145 25.5H2.0902ZM25.6533 1.93687C12.6398 1.93687 2.0902 12.4864 2.0902 25.5H2.34145C2.34145 12.6252 12.7785 2.18813 25.6533 2.18813V1.93687ZM49.2164 25.5C49.2164 12.4864 38.6669 1.93687 25.6533 1.93687V2.18813C38.5281 2.18813 48.9652 12.6252 48.9652 25.5H49.2164ZM25.6533 40.209C33.7769 40.209 40.3623 33.6235 40.3623 25.5H40.111C40.111 33.4848 33.6381 39.9577 25.6533 39.9577V40.209ZM10.9444 25.5C10.9444 33.6235 17.5298 40.209 25.6533 40.209V39.9577C17.6685 39.9577 11.1956 33.4848 11.1956 25.5H10.9444ZM25.6533 10.791C17.5298 10.791 10.9444 17.3765 10.9444 25.5H11.1956C11.1956 17.5152 17.6685 11.0423 25.6533 11.0423V10.791ZM40.3623 25.5C40.3623 17.3765 33.7769 10.791 25.6533 10.791V11.0423C33.6381 11.0423 40.111 17.5152 40.111 25.5H40.3623ZM25.653 38.6461C32.9136 38.6461 38.7994 32.7603 38.7994 25.4997H38.5482C38.5482 32.6215 32.7748 38.3949 25.653 38.3949V38.6461ZM12.5065 25.4997C12.5065 32.7603 18.3924 38.6461 25.653 38.6461V38.3949C18.5312 38.3949 12.7578 32.6215 12.7578 25.4997H12.5065ZM25.653 12.3532C18.3924 12.3532 12.5065 18.2391 12.5065 25.4997H12.7578C12.7578 18.3778 18.5312 12.6045 25.653 12.6045V12.3532ZM38.7994 25.4997C38.7994 18.2391 32.9136 12.3532 25.653 12.3532V12.6045C32.7748 12.6045 38.5482 18.3778 38.5482 25.4997H38.7994ZM8.90621 22.978C8.97471 22.5801 8.926 22.2419 8.77516 21.9862C8.62301 21.7284 8.37472 21.5683 8.07432 21.5166L8.03169 21.7642C8.26608 21.8045 8.44744 21.9253 8.55877 22.1139C8.67141 22.3048 8.72001 22.5787 8.6586 22.9354L8.90621 22.978ZM8.6591 24.4134L8.90621 22.978L8.6586 22.9354L8.41149 24.3708L8.6591 24.4134ZM5.15432 23.9376L8.51398 24.5159L8.55661 24.2683L5.19694 23.6899L5.15432 23.9376ZM5.2834 22.4473L5.05183 23.7924L5.29943 23.8351L5.53101 22.4899L5.2834 22.4473ZM6.4818 21.3775C6.19699 21.3285 5.92643 21.3922 5.71054 21.5795C5.49751 21.7643 5.35039 22.0581 5.2834 22.4473L5.53101 22.4899C5.59167 22.1375 5.71939 21.9044 5.87517 21.7693C6.0281 21.6366 6.22037 21.5875 6.43918 21.6251L6.4818 21.3775ZM7.20326 22.2261C7.19288 22.0235 7.13052 21.8312 7.00873 21.6781C6.88586 21.5237 6.7081 21.4165 6.4818 21.3775L6.43917 21.6251C6.60823 21.6542 6.72983 21.7311 6.81213 21.8346C6.89551 21.9394 6.94413 22.0786 6.95234 22.239L7.20326 22.2261ZM7.13193 22.1144L7.09912 22.1088L7.05648 22.3564L7.08929 22.362L7.13193 22.1144ZM8.07432 21.5166C7.508 21.4191 7.08558 21.7696 6.98795 22.2111L7.23327 22.2653C7.30333 21.9485 7.60389 21.6905 8.03169 21.7642L8.07432 21.5166ZM6.67064 22.7976L6.57999 23.3241L6.82759 23.3668L6.91825 22.8402L6.67064 22.7976ZM6.43388 22.3623C6.52985 22.3789 6.59454 22.4287 6.63367 22.4985C6.67441 22.571 6.69189 22.6741 6.67064 22.7976L6.91825 22.8402C6.94698 22.6733 6.92772 22.509 6.85277 22.3755C6.77621 22.2391 6.64629 22.144 6.4765 22.1147L6.43388 22.3623ZM6.08879 22.6839C6.11244 22.5465 6.16369 22.4605 6.22025 22.4129C6.27444 22.3673 6.34504 22.3471 6.43387 22.3623L6.4765 22.1147C6.32255 22.0882 6.17516 22.1225 6.05851 22.2206C5.94421 22.3168 5.87176 22.4636 5.84119 22.6413L6.08879 22.6839ZM5.99588 23.2236L6.08879 22.6839L5.84119 22.6413L5.74827 23.181L5.99588 23.2236ZM6.7251 23.2217L5.89339 23.0785L5.85076 23.3261L6.68248 23.4693L6.7251 23.2217ZM8.05274 22.9814L7.95305 23.5605L8.20066 23.6031L8.30035 23.0241L8.05274 22.9814ZM7.83491 22.4853C7.93077 22.5018 7.99094 22.5442 8.02631 22.6094C8.06465 22.6802 8.08442 22.7974 8.05274 22.9814L8.30035 23.0241C8.33702 22.8111 8.32294 22.6295 8.2472 22.4897C8.16847 22.3444 8.03431 22.2647 7.87754 22.2377L7.83491 22.4853ZM7.41077 22.854C7.43611 22.7068 7.49682 22.607 7.56865 22.5489C7.63912 22.492 7.72968 22.4672 7.83491 22.4853L7.87754 22.2377C7.70553 22.2081 7.54083 22.2483 7.41067 22.3536C7.28186 22.4577 7.19655 22.6174 7.16316 22.8114L7.41077 22.854ZM7.30825 23.4495L7.41076 22.854L7.16316 22.8114L7.06064 23.4069L7.30825 23.4495ZM8.09817 23.458L7.20576 23.3044L7.16313 23.552L8.05554 23.7056L8.09817 23.458ZM9.61946 19.424L6.43946 18.1954L6.34891 18.4298L9.52891 19.6584L9.61946 19.424ZM9.43161 20.2588L9.69137 19.5865L9.457 19.4959L9.19724 20.1682L9.43161 20.2588ZM6.08915 19.1021L9.26915 20.3307L9.3597 20.0963L6.1797 18.8677L6.08915 19.1021ZM6.277 18.2673L6.01724 18.9396L6.25161 19.0302L6.51136 18.3579L6.277 18.2673ZM11.1972 16.4335L8.81618 14.9322L8.68217 15.1447L11.0632 16.646L11.1972 16.4335ZM10.8565 17.2094L11.2365 16.6068L11.0239 16.4728L10.6439 17.0754L10.8565 17.2094ZM8.30218 15.7473L10.6832 17.2487L10.8172 17.0361L8.43619 15.5348L8.30218 15.7473ZM7.91877 16.5909L8.47545 15.7081L8.26292 15.5741L7.70624 16.4569L7.91877 16.5909ZM7.24283 16.3132L7.7455 16.6302L7.87951 16.4177L7.37684 16.1007L7.24283 16.3132ZM8.69691 13.7716L7.20357 16.14L7.4161 16.274L8.90944 13.9056L8.69691 13.7716ZM9.37286 14.0493L8.87018 13.7324L8.73617 13.9449L9.23885 14.2618L9.37286 14.0493ZM8.85544 15.1054L9.41212 14.2226L9.19959 14.0886L8.64291 14.9714L8.85544 15.1054ZM13.7633 13.5416C14.4487 12.9007 14.4428 12.0449 14.0347 11.4826L13.8314 11.6302C14.1662 12.0915 14.183 12.8052 13.5917 13.3581L13.7633 13.5416ZM11.2298 13.3412C11.6271 13.766 12.0781 13.9889 12.5269 14.0162C12.9761 14.0435 13.4081 13.8737 13.7633 13.5416L13.5917 13.3581C13.2807 13.6489 12.9144 13.788 12.5421 13.7654C12.1694 13.7428 11.7756 13.5569 11.4133 13.1696L11.2298 13.3412ZM11.1997 10.7999C10.8486 11.1282 10.6499 11.5471 10.6456 11.9975C10.6413 12.4476 10.8311 12.9148 11.2298 13.3412L11.4133 13.1696C11.0503 12.7814 10.8932 12.3742 10.8968 11.9999C10.9004 11.6259 11.0645 11.2702 11.3713 10.9834L11.1997 10.7999ZM13.2942 10.6906C12.9677 10.4162 12.5983 10.2954 12.2294 10.3204C11.8618 10.3454 11.5052 10.5142 11.1997 10.7999L11.3713 10.9834C11.642 10.7303 11.9459 10.5915 12.2464 10.5711C12.5455 10.5508 12.8519 10.647 13.1325 10.8829L13.2942 10.6906ZM12.7666 11.3765L13.2992 10.8785L13.1275 10.695L12.595 11.193L12.7666 11.3765ZM11.8189 11.4377C11.9452 11.3196 12.0818 11.26 12.2125 11.2511C12.3425 11.2423 12.4769 11.2828 12.6025 11.3829L12.7591 11.1865C12.5888 11.0506 12.3934 10.987 12.1955 11.0005C11.9984 11.0138 11.8091 11.1029 11.6473 11.2542L11.8189 11.4377ZM11.9471 12.6705C11.7179 12.4253 11.6088 12.1885 11.5933 11.9826C11.5782 11.7808 11.6517 11.594 11.8189 11.4377L11.6473 11.2542C11.429 11.4583 11.3215 11.7177 11.3428 12.0014C11.3637 12.2811 11.5085 12.5693 11.7636 12.8421L11.9471 12.6705ZM13.1648 12.8844C13.0003 13.0383 12.8128 13.101 12.6149 13.074C12.413 13.0465 12.1834 12.9232 11.9471 12.6705L11.7636 12.8421C12.0253 13.1219 12.3042 13.2853 12.581 13.323C12.8616 13.3612 13.1228 13.2677 13.3364 13.068L13.1648 12.8844ZM13.2922 12.1194C13.3763 12.2515 13.4017 12.3858 13.3805 12.5121C13.3591 12.6396 13.2886 12.7686 13.1648 12.8844L13.3364 13.068C13.4934 12.9211 13.5963 12.7444 13.6283 12.5537C13.6605 12.3618 13.6192 12.1652 13.5042 11.9845L13.2922 12.1194ZM13.8476 11.4642L13.3128 11.9598L13.4836 12.1441L14.0184 11.6485L13.8476 11.4642ZM17.4437 10.7749C17.8723 10.5541 18.1795 10.2045 18.308 9.7717C18.4366 9.33904 18.3825 8.83712 18.1151 8.31793L17.8917 8.43297C18.135 8.90526 18.1741 9.34027 18.0672 9.70015C17.9603 10.0599 17.7035 10.3584 17.3286 10.5515L17.4437 10.7749ZM15.0534 9.89492C15.3197 10.4118 15.6957 10.7478 16.1222 10.8952C16.549 11.0428 17.0127 10.9969 17.4437 10.7749L17.3286 10.5515C16.9516 10.7457 16.559 10.7804 16.2043 10.6578C15.8494 10.5351 15.519 10.2501 15.2768 9.77987L15.0534 9.89492ZM15.7249 7.43797C15.2942 7.65982 14.9868 8.00944 14.8588 8.44214C14.7308 8.87464 14.7861 9.37595 15.0534 9.89492L15.2768 9.77987C15.0334 9.30737 14.9934 8.87289 15.0997 8.51343C15.206 8.15417 15.4626 7.85566 15.8399 7.66133L15.7249 7.43797ZM18.1151 8.31793C17.8477 7.79873 17.4704 7.4633 17.0435 7.31672C16.6165 7.1701 16.1535 7.2172 15.7249 7.43797L15.8399 7.66133C16.2149 7.46821 16.607 7.43247 16.9619 7.55435C17.317 7.67627 17.6485 7.96069 17.8917 8.43297L18.1151 8.31793ZM17.0367 9.98475C16.8338 10.0892 16.6367 10.0968 16.4549 10.0157C16.269 9.9329 16.0836 9.75035 15.9264 9.44526L15.7031 9.56031C15.8767 9.89745 16.098 10.1318 16.3526 10.2452C16.6112 10.3605 16.8884 10.3437 17.1517 10.2081L17.0367 9.98475ZM17.2421 8.76759C17.3992 9.07257 17.4399 9.32966 17.3992 9.52926C17.3594 9.72461 17.2387 9.88069 17.0367 9.98475L17.1517 10.2081C17.4144 10.0728 17.5889 9.85685 17.6454 9.57942C17.701 9.30623 17.6392 8.98981 17.4655 8.65254L17.2421 8.76759ZM16.1319 8.2281C16.3339 8.12405 16.531 8.11641 16.7132 8.19743C16.8993 8.28022 17.085 8.46262 17.2421 8.76759L17.4655 8.65254C17.2917 8.31527 17.07 8.08118 16.8153 7.96787C16.5566 7.8528 16.2795 7.86945 16.0168 8.00474L16.1319 8.2281ZM15.9264 9.44526C15.7693 9.14016 15.7283 8.88325 15.7688 8.6838C15.8084 8.48868 15.929 8.33258 16.1319 8.2281L16.0168 8.00474C15.7535 8.14037 15.5789 8.35632 15.5226 8.6338C15.4671 8.90694 15.5294 9.22316 15.7031 9.56031L15.9264 9.44526ZM21.1203 8.96311L20.2401 5.66963L19.9974 5.7345L20.8776 9.02798L21.1203 8.96311ZM20.3351 9.30302L21.0314 9.11691L20.9665 8.87418L20.2702 9.06029L20.3351 9.30302ZM19.301 5.92061L20.1813 9.21409L20.424 9.14922L19.5438 5.85574L19.301 5.92061ZM20.0863 5.5807L19.39 5.76681L19.4548 6.00954L20.1512 5.82343L20.0863 5.5807ZM23.5607 8.55471L23.4453 6.41215L23.1944 6.42567L23.3098 8.56822L23.5607 8.55471ZM22.7223 8.72568L23.442 8.68691L23.4285 8.43602L22.7087 8.47479L22.7223 8.72568ZM22.4067 5.20284L22.5901 8.60699L22.8409 8.59348L22.6576 5.18932L22.4067 5.20284ZM23.157 5.03661L22.5254 5.07064L22.5389 5.32152L23.1705 5.2875L23.157 5.03661ZM24.8481 7.14725L23.2634 5.0855L23.0642 5.23861L24.6489 7.30036L24.8481 7.14725ZM24.7716 7.09675L24.7417 7.09836L24.7552 7.34925L24.7851 7.34764L24.7716 7.09675ZM24.5376 5.08806L24.6529 7.22895L24.9038 7.21544L24.7885 5.07455L24.5376 5.08806ZM25.3727 4.91727L24.6563 4.95586L24.6698 5.20675L25.3862 5.16816L25.3727 4.91727ZM25.6883 8.44011L25.5049 5.03596L25.254 5.04947L25.4374 8.45363L25.6883 8.44011ZM24.9479 8.6058L25.5696 8.57231L25.5561 8.32143L24.9344 8.35491L24.9479 8.6058ZM23.2454 6.49445L24.8418 8.55724L25.0405 8.40347L23.4441 6.34068L23.2454 6.49445ZM23.3266 6.54435L23.3515 6.54301L23.338 6.29212L23.3131 6.29347L23.3266 6.54435ZM30.6226 9.31476C31.1362 9.4988 31.6189 9.49187 32.0249 9.29434C32.4305 9.09703 32.7415 8.71831 32.9294 8.19369L32.6929 8.10894C32.5215 8.58722 32.2483 8.90627 31.915 9.06841C31.5822 9.23034 31.1715 9.24456 30.7073 9.07823L30.6226 9.31476ZM29.4849 8.90713L30.6226 9.31476L30.7073 9.07823L29.5696 8.6706L29.4849 8.90713ZM30.5589 5.53719L29.409 8.74649L29.6455 8.83124L30.7954 5.62194L30.5589 5.53719ZM31.8666 5.8723L30.7195 5.4613L30.6348 5.69783L31.7819 6.10883L31.8666 5.8723ZM32.9294 8.19369C33.1169 7.67053 33.1166 7.1821 32.9294 6.7738C32.742 6.36506 32.3757 6.0547 31.8666 5.8723L31.7819 6.10883C32.2412 6.27342 32.5475 6.54355 32.701 6.8785C32.8548 7.21388 32.8637 7.63232 32.6929 8.10894L32.9294 8.19369ZM30.8874 8.48675L30.4565 8.33235L30.3717 8.56887L30.8027 8.72328L30.8874 8.48675ZM32.016 7.86638C31.893 8.20958 31.737 8.40401 31.5617 8.49502C31.3889 8.58479 31.1699 8.58797 30.8874 8.48675L30.8027 8.72328C31.1235 8.83823 31.4208 8.85135 31.6775 8.71798C31.932 8.58585 32.1189 8.32406 32.2525 7.95113L32.016 7.86638ZM31.5375 6.67729C31.8195 6.77831 31.9865 6.91908 32.0631 7.09704C32.1407 7.27728 32.1383 7.52485 32.016 7.86638L32.2525 7.95113C32.3856 7.57965 32.4069 7.26016 32.2939 6.99769C32.1799 6.73294 31.9421 6.55535 31.6223 6.44076L31.5375 6.67729ZM31.105 6.52232L31.5375 6.67729L31.6223 6.44076L31.1898 6.28579L31.105 6.52232ZM30.5324 8.49298L31.2656 6.44643L31.0291 6.36168L30.2958 8.40824L30.5324 8.49298ZM35.8038 11.7577L36.1372 11.2658L35.9293 11.1248L35.5959 11.6167L35.8038 11.7577ZM33.7223 10.4987L35.6294 11.7912L35.7703 11.5832L33.8633 10.2907L33.7223 10.4987ZM35.6015 7.50222L33.6888 10.3242L33.8968 10.4652L35.8095 7.64319L35.6015 7.50222ZM37.6775 8.75753L35.776 7.46872L35.635 7.6767L37.5365 8.96551L37.6775 8.75753ZM37.3776 9.42392L37.711 8.932L37.503 8.79104L37.1696 9.28295L37.3776 9.42392ZM35.8982 8.573L37.2031 9.45742L37.3441 9.24944L36.0392 8.36502L35.8982 8.573ZM35.6169 9.21192L36.0727 8.53949L35.8647 8.39853L35.409 9.07095L35.6169 9.21192ZM36.7905 9.85556L35.5834 9.03745L35.4425 9.24543L36.6495 10.0635L36.7905 9.85556ZM36.4906 10.522L36.824 10.03L36.616 9.88907L36.2826 10.381L36.4906 10.522ZM35.1091 9.73734L36.3161 10.5555L36.4571 10.3475L35.25 9.52936L35.1091 9.73734ZM34.8268 10.3776L35.2835 9.70384L35.0756 9.56287L34.6189 10.2367L34.8268 10.3776ZM36.1037 11.0913L34.7933 10.2032L34.6524 10.4111L35.9628 11.2993L36.1037 11.0913ZM37.8092 13.7684C38.1007 14.0906 38.4197 14.2886 38.7393 14.3437C39.0632 14.3996 39.3734 14.306 39.6322 14.0731L39.4641 13.8863C39.2589 14.071 39.0254 14.1381 38.782 14.0961C38.5343 14.0534 38.2624 13.8948 37.9955 13.5998L37.8092 13.7684ZM37.7239 11.8243C37.4334 12.1005 37.2992 12.4245 37.3225 12.7688C37.3454 13.1081 37.5201 13.4488 37.8092 13.7684L37.9955 13.5998C37.7296 13.306 37.591 13.0164 37.5732 12.7518C37.5556 12.4921 37.653 12.2384 37.897 12.0063L37.7239 11.8243ZM38.3716 12.3482L37.9036 11.831L37.7173 11.9996L38.1853 12.5168L38.3716 12.3482ZM38.438 13.1883C38.3242 13.0625 38.2647 12.938 38.2533 12.8278C38.2425 12.7222 38.2744 12.6177 38.3689 12.5197L38.188 12.3453C38.045 12.4935 37.9845 12.6702 38.0034 12.8536C38.0218 13.0324 38.1142 13.2049 38.2517 13.3568L38.438 13.1883ZM38.9776 13.3455C38.9177 13.399 38.8426 13.4179 38.7533 13.3976C38.6602 13.3764 38.549 13.3109 38.438 13.1883L38.2517 13.3568C38.3865 13.5058 38.5403 13.6068 38.6975 13.6425C38.8584 13.6792 39.0187 13.6456 39.145 13.5329L38.9776 13.3455ZM38.8783 12.7837C38.9686 12.9499 39.0193 13.0729 39.0324 13.1665C39.0442 13.2499 39.0258 13.3013 38.9764 13.3466L39.1463 13.5317C39.2661 13.4217 39.3026 13.2831 39.2812 13.1315C39.2614 12.9901 39.1911 12.8331 39.099 12.6637L38.8783 12.7837ZM38.6978 12.445L38.8778 12.7828L39.0995 12.6647L38.9196 12.3269L38.6978 12.445ZM38.7903 10.9805C38.5784 11.171 38.4752 11.4014 38.4692 11.6581C38.4633 11.9095 38.5508 12.1759 38.6985 12.4461L38.919 12.3257C38.7827 12.0762 38.7159 11.8546 38.7204 11.664C38.7247 11.4787 38.7962 11.313 38.9583 11.1674L38.7903 10.9805ZM40.5994 11.2551C40.3339 10.9616 40.0161 10.7733 39.6947 10.7183C39.3705 10.6628 39.0482 10.7447 38.7895 10.9813L38.9591 11.1667C39.1573 10.9853 39.4002 10.9228 39.6524 10.9659C39.9073 11.0096 40.1771 11.1629 40.4131 11.4237L40.5994 11.2551ZM40.6815 13.0608C40.9301 12.8282 41.0499 12.5258 41.0338 12.2034C41.0179 11.8833 40.869 11.5531 40.5994 11.2551L40.4131 11.4237C40.6527 11.6885 40.7704 11.9656 40.7829 12.2159C40.7952 12.4638 40.705 12.6947 40.5099 12.8773L40.6815 13.0608ZM40.039 12.5411L40.5025 13.0533L40.6888 12.8847L40.2253 12.3725L40.039 12.5411ZM39.9629 11.8242C40.0667 11.9389 40.1145 12.0444 40.1237 12.1324C40.1325 12.2167 40.1073 12.2971 40.0391 12.3724L40.2253 12.5411C40.3379 12.4168 40.3903 12.2667 40.3736 12.1063C40.3573 11.9497 40.2766 11.7965 40.1492 11.6557L39.9629 11.8242ZM39.4902 11.6828C39.541 11.6368 39.6033 11.619 39.6778 11.6344C39.7565 11.6507 39.8562 11.7064 39.9629 11.8242L40.1492 11.6557C40.0191 11.5119 39.8752 11.4187 39.7288 11.3884C39.5782 11.3572 39.4338 11.395 39.3217 11.4965L39.4902 11.6828ZM39.564 12.212C39.4917 12.0824 39.4429 11.9683 39.4296 11.8744C39.4173 11.7874 39.436 11.7299 39.4883 11.6845L39.3236 11.4948C39.1911 11.6098 39.1599 11.7613 39.1809 11.9096C39.2009 12.0511 39.2687 12.1985 39.3446 12.3344L39.564 12.212ZM39.7157 12.4892L39.5645 12.2129L39.3441 12.3335L39.4953 12.6098L39.7157 12.4892ZM39.6327 14.0726C39.8692 13.8574 39.9728 13.598 39.9719 13.3192C39.971 13.0459 39.87 12.7622 39.7148 12.4877L39.4961 12.6113C39.6398 12.8655 39.72 13.1059 39.7207 13.32C39.7213 13.5286 39.6469 13.7199 39.4636 13.8868L39.6327 14.0726ZM40.3171 16.6148L43.2412 14.8622L43.112 14.6467L40.188 16.3993L40.3171 16.6148ZM39.7742 15.9534L40.1448 16.5716L40.3603 16.4425L39.9897 15.8243L39.7742 15.9534ZM42.7415 14.0285L39.8174 15.7811L39.9466 15.9966L42.8706 14.244L42.7415 14.0285ZM43.2844 14.6898L42.9138 14.0716L42.6983 14.2008L43.0689 14.819L43.2844 14.6898ZM41.4384 19.5649C41.586 19.9972 41.8528 20.3305 42.2053 20.5148C42.5589 20.6996 42.9858 20.7278 43.4386 20.5732L43.3575 20.3354C42.9612 20.4707 42.6067 20.4411 42.3217 20.2921C42.0357 20.1426 41.8067 19.8659 41.6762 19.4838L41.4384 19.5649ZM42.6507 17.3174C42.1165 17.4998 41.7269 17.8127 41.5143 18.211C41.3012 18.6103 41.2735 19.0817 41.4384 19.5649L41.6762 19.4838C41.5308 19.058 41.5596 18.6597 41.736 18.3293C41.9128 17.998 42.2453 17.7213 42.7319 17.5552L42.6507 17.3174ZM44.9858 18.338C44.8303 17.8825 44.5258 17.5292 44.1148 17.3398C43.7041 17.1505 43.199 17.1302 42.6507 17.3174L42.7319 17.5552C43.2296 17.3852 43.6668 17.41 44.0097 17.568C44.3523 17.7259 44.6126 18.0224 44.748 18.4191L44.9858 18.338ZM44.3076 20.2418C44.9807 19.903 45.2516 19.1164 44.9858 18.338L44.748 18.4191C44.9803 19.0994 44.7373 19.7442 44.1946 20.0174L44.3076 20.2418ZM43.8956 19.4771L44.1322 20.1702L44.37 20.089L44.1333 19.3959L43.8956 19.4771ZM44.1485 18.6362C44.2014 18.7911 44.2032 18.9264 44.1682 19.0394C44.1333 19.1521 44.059 19.2525 43.9427 19.3334L44.0862 19.5396C44.2428 19.4306 44.3549 19.2861 44.4082 19.1137C44.4615 18.9416 44.4533 18.7513 44.3862 18.555L44.1485 18.6362ZM42.9743 18.2446C43.2913 18.1364 43.5517 18.136 43.7455 18.2076C43.9359 18.2781 44.0756 18.4227 44.1485 18.6362L44.3862 18.555C44.2908 18.2754 44.0991 18.0705 43.8326 17.972C43.5695 17.8747 43.2472 17.8859 42.8931 18.0068L42.9743 18.2446ZM42.2806 19.2809C42.2042 19.0572 42.2273 18.856 42.3355 18.6851C42.446 18.5106 42.6546 18.3537 42.9743 18.2446L42.8931 18.0068C42.5386 18.1278 42.2738 18.3129 42.1232 18.5507C41.9703 18.7922 41.9444 19.0738 42.0428 19.3621L42.2806 19.2809ZM43.0289 19.7142C42.8549 19.769 42.7039 19.7538 42.5822 19.6859C42.4592 19.6172 42.3506 19.486 42.2806 19.2809L42.0428 19.3621C42.1277 19.6107 42.2699 19.7993 42.4598 19.9053C42.651 20.0119 42.8751 20.0261 43.1044 19.9538L43.0289 19.7142ZM42.7111 19.1814L42.9478 19.8746L43.1855 19.7934L42.9489 19.1002L42.7111 19.1814ZM43.303 18.8466L42.7894 19.0219L42.8706 19.2597L43.3841 19.0844L43.303 18.8466ZM43.9234 20.275L43.4624 18.9249L43.2247 19.0061L43.6856 20.3561L43.9234 20.275ZM43.4386 20.5732L43.8451 20.4344L43.7639 20.1967L43.3575 20.3354L43.4386 20.5732ZM42.5951 23.374L44.7374 23.2535L44.7233 23.0027L42.581 23.1231L42.5951 23.374ZM42.4222 22.536L42.4626 23.2556L42.7135 23.2415L42.673 22.5219L42.4222 22.536ZM45.9442 22.2121L42.5405 22.4035L42.5546 22.6544L45.9583 22.4629L45.9442 22.2121ZM46.1122 22.962L46.0767 22.3304L45.8259 22.3446L45.8614 22.9761L46.1122 22.962ZM44.0056 24.658L46.0636 23.0685L45.91 22.8696L43.852 24.4592L44.0056 24.658ZM44.0559 24.5815L44.0543 24.5516L43.8034 24.5657L43.8051 24.5956L44.0559 24.5815ZM46.0641 24.3427L43.9235 24.4631L43.9376 24.714L46.0782 24.5936L46.0641 24.3427ZM46.2368 25.1774L46.1966 24.4611L45.9457 24.4752L45.986 25.1915L46.2368 25.1774ZM42.7148 25.5013L46.1185 25.3099L46.1044 25.059L42.7006 25.2505L42.7148 25.5013ZM42.5473 24.7614L42.5823 25.3829L42.8331 25.3688L42.7982 24.7473L42.5473 24.7614ZM44.6546 23.0538L42.5956 24.6551L42.7499 24.8535L44.8089 23.2522L44.6546 23.0538ZM44.6049 23.1351L44.6063 23.1601L44.8572 23.1459L44.8558 23.121L44.6049 23.1351ZM11.6705 39.0233C11.1981 39.3423 10.4843 39.3349 9.95177 38.7252L9.76254 38.8905C10.3798 39.5972 11.2354 39.6203 11.8111 39.2315L11.6705 39.0233ZM11.1687 38.6583L11.6458 39.2096L11.8358 39.0452L11.3587 38.4939L11.1687 38.6583ZM10.2504 38.4799C10.3918 38.6418 10.5649 38.7506 10.7544 38.789C10.9451 38.8277 11.143 38.7931 11.3275 38.6843L11.1999 38.4679C11.065 38.5474 10.93 38.5682 10.8044 38.5428C10.6777 38.5171 10.5511 38.4423 10.4396 38.3146L10.2504 38.4799ZM10.5295 36.9156C10.2409 37.1676 10.0682 37.4409 10.0211 37.7162C9.97335 37.9954 10.058 38.2596 10.2504 38.4799L10.4396 38.3146C10.2915 38.145 10.2351 37.9554 10.2687 37.7585C10.3031 37.5577 10.4342 37.3324 10.6948 37.1048L10.5295 36.9156ZM12.1203 36.8532C11.9238 36.6281 11.6681 36.5119 11.3839 36.5235C11.1036 36.535 10.8108 36.6699 10.5295 36.9156L10.6948 37.1048C10.9475 36.884 11.1879 36.783 11.3942 36.7746C11.5964 36.7663 11.7806 36.8461 11.9311 37.0185L12.1203 36.8532ZM12.1503 37.9667C12.2919 37.8011 12.3621 37.6079 12.3554 37.4097C12.3487 37.2123 12.2661 37.0201 12.1203 36.8532L11.9311 37.0185C12.0449 37.1487 12.0998 37.2872 12.1043 37.4182C12.1087 37.5484 12.0637 37.6814 11.9593 37.8035L12.1503 37.9667ZM12.629 38.3516L12.1494 37.8025L11.9602 37.9678L12.4398 38.5169L12.629 38.3516ZM12.4003 36.5865C12.6442 36.8657 12.7726 37.1741 12.7827 37.4751C12.7929 37.7748 12.6863 38.0777 12.4411 38.3502L12.6278 38.5183C12.9131 38.2013 13.0463 37.8362 13.0339 37.4666C13.0214 37.0984 12.8648 36.7363 12.5896 36.4212L12.4003 36.5865ZM10.214 36.5544C10.6143 36.2048 11.0266 36.0616 11.4005 36.0779C11.7743 36.0942 12.1241 36.2703 12.4003 36.5865L12.5896 36.4212C12.2734 36.0593 11.8614 35.8465 11.4115 35.8269C10.9617 35.8073 10.4884 35.9812 10.0488 36.3652L10.214 36.5544ZM9.95177 38.7252C9.67161 38.4044 9.54501 38.0337 9.58025 37.6624C9.61554 37.2906 9.8146 36.9033 10.214 36.5544L10.0488 36.3652C9.61071 36.7478 9.37261 37.191 9.33013 37.6386C9.2876 38.0867 9.44262 38.5242 9.76254 38.8905L9.95177 38.7252ZM15.4568 41.4916C15.1459 41.9223 14.7757 42.1542 14.4064 42.2218C14.0373 42.2894 13.6549 42.1956 13.3129 41.9487L13.1659 42.1525C13.5568 42.4347 14.0076 42.5503 14.4517 42.4689C14.8956 42.3876 15.3187 42.1122 15.6605 41.6387L15.4568 41.4916ZM15.2158 39.3128C15.5578 39.5596 15.7672 39.8931 15.8192 40.2648C15.8713 40.6365 15.7678 41.0609 15.4568 41.4916L15.6605 41.6387C16.0024 41.1651 16.1306 40.6769 16.0681 40.2299C16.0055 39.7828 15.7538 39.3913 15.3629 39.1091L15.2158 39.3128ZM13.0719 39.7699C13.383 39.339 13.7523 39.1065 14.1209 39.0386C14.4894 38.9707 14.8717 39.0644 15.2158 39.3128L15.3629 39.1091C14.9701 38.8255 14.5192 38.7097 14.0754 38.7915C13.6318 38.8732 13.2099 39.1495 12.8682 39.6228L13.0719 39.7699ZM13.3129 41.9487C12.969 41.7005 12.7604 41.3662 12.7091 40.9944C12.6578 40.6224 12.7623 40.1987 13.0719 39.7699L12.8682 39.6228C12.5279 40.0942 12.3986 40.5817 12.4602 41.0287C12.5219 41.476 12.7728 41.8687 13.1659 42.1525L13.3129 41.9487ZM13.4607 40.0506C13.2387 40.3581 13.13 40.6615 13.1441 40.9398C13.1584 41.2226 13.2989 41.4622 13.539 41.6355L13.6861 41.4318C13.5011 41.2983 13.4051 41.1259 13.395 40.9271C13.3847 40.7238 13.4635 40.4759 13.6644 40.1976L13.4607 40.0506ZM14.9897 39.626C14.7496 39.4526 14.478 39.3947 14.2051 39.4701C13.9364 39.5444 13.6827 39.7431 13.4607 40.0506L13.6644 40.1976C13.8653 39.9194 14.0758 39.7665 14.272 39.7123C14.4639 39.6593 14.6577 39.6962 14.8427 39.8297L14.9897 39.626ZM15.068 41.2109C15.2901 40.9033 15.3985 40.5997 15.3841 40.3212C15.3696 40.0385 15.2293 39.7989 14.9897 39.626L14.8427 39.8297C15.0269 39.9627 15.123 40.135 15.1332 40.3341C15.1437 40.5376 15.0651 40.7857 14.8643 41.0639L15.068 41.2109ZM13.539 41.6355C13.7786 41.8085 14.0501 41.8663 14.3231 41.791C14.5919 41.717 14.846 41.5185 15.068 41.2109L14.8643 41.0639C14.6635 41.342 14.4527 41.4947 14.2563 41.5488C14.0641 41.6018 13.8703 41.5648 13.6861 41.4318L13.539 41.6355ZM17.3188 42.0111L16.4994 44.0821L16.733 44.1745L17.5525 42.1035L17.3188 42.0111ZM17.5082 41.9509L17.4819 41.9405L17.3894 42.1741L17.4157 42.1845L17.5082 41.9509ZM17.5947 44.4475L17.5876 42.0673L17.3363 42.0681L17.3434 44.4482L17.5947 44.4475ZM17.9579 44.5062L17.5152 44.331L17.4228 44.5646L17.8655 44.7398L17.9579 44.5062ZM19.451 42.8134L17.8205 44.5366L18.003 44.7093L19.6335 42.9861L19.451 42.8134ZM19.6148 42.7934L19.5885 42.7829L19.4961 43.0166L19.5224 43.027L19.6148 42.7934ZM18.8691 45.0197L19.6854 42.9564L19.4518 42.8639L18.6354 44.9272L18.8691 45.0197ZM19.4486 45.1138L18.7985 44.8566L18.706 45.0903L19.3561 45.3475L19.4486 45.1138ZM20.5398 42.0145L19.2855 45.1844L19.5192 45.2769L20.7734 42.1069L20.5398 42.0145ZM19.7838 41.8505L20.6104 42.1775L20.7028 41.9439L19.8762 41.6168L19.7838 41.8505ZM18.2049 43.6051L19.9206 41.8207L19.7395 41.6466L18.0238 43.431L18.2049 43.6051ZM18.031 43.6202L18.0681 43.6349L18.1606 43.4013L18.1234 43.3866L18.031 43.6202ZM17.9213 41.0297L17.9516 43.5049L18.2028 43.5018L18.1725 41.0266L17.9213 41.0297ZM17.1741 40.8179L18.0007 41.145L18.0931 40.9113L17.2666 40.5843L17.1741 40.8179ZM16.083 43.9173L17.3372 40.7473L17.1035 40.6549L15.8493 43.8249L16.083 43.9173ZM16.6625 44.0115L16.0124 43.7543L15.9199 43.9879L16.57 44.2451L16.6625 44.0115ZM21.9035 43.6628L21.6567 45.8763L21.9064 45.9042L22.1533 43.6907L21.9035 43.6628ZM22.0704 43.555L22.0423 43.5519L22.0145 43.8016L22.0426 43.8047L22.0704 43.555ZM22.8094 45.9413L22.1776 43.6465L21.9354 43.7132L22.5672 46.008L22.8094 45.9413ZM23.1754 45.9025L22.7022 45.8498L22.6744 46.0995L23.1475 46.1522L23.1754 45.9025ZM24.1716 43.8771L23.0507 45.968L23.2722 46.0867L24.3931 43.9958L24.1716 43.8771ZM24.3244 43.8148L24.2963 43.8116L24.2684 44.0613L24.2965 44.0645L24.3244 43.8148ZM24.1894 46.1588L24.4353 43.9535L24.1856 43.9257L23.9397 46.1309L24.1894 46.1588ZM24.7733 46.0975L24.0784 46.02L24.0506 46.2697L24.7454 46.3472L24.7733 46.0975ZM25.0124 42.8203L24.6345 46.2084L24.8842 46.2363L25.2621 42.8482L25.0124 42.8203ZM24.2399 42.8606L25.1233 42.9591L25.1511 42.7094L24.2677 42.6109L24.2399 42.8606ZM23.1771 44.9683L24.364 42.796L24.1435 42.6755L22.9566 44.8478L23.1771 44.9683ZM23.0132 45.0285L23.0529 45.0329L23.0808 44.7832L23.0411 44.7788L23.0132 45.0285ZM22.2272 42.5577L22.9064 44.9381L23.148 44.8692L22.4688 42.4887L22.2272 42.5577ZM21.4507 42.5495L22.3341 42.648L22.3619 42.3983L21.4785 42.2998L21.4507 42.5495ZM21.2116 45.8267L21.5894 42.4386L21.3397 42.4107L20.9619 45.7988L21.2116 45.8267ZM21.7955 45.7654L21.1006 45.6879L21.0728 45.9376L21.7676 46.0151L21.7955 45.7654ZM29.0707 44.8597C29.1158 45.2079 29.0184 45.4868 28.8241 45.6923C28.6271 45.9007 28.3204 46.0437 27.9322 46.094L27.9644 46.3432C28.3934 46.2876 28.7597 46.1262 29.0067 45.8649C29.2564 45.6008 29.3739 45.2451 29.3198 44.8274L29.0707 44.8597ZM28.7812 42.6245L29.0707 44.8597L29.3198 44.8274L29.0303 42.5922L28.7812 42.6245ZM28.212 42.8249L28.9219 42.7329L28.8896 42.4838L28.1798 42.5757L28.212 42.8249ZM28.6068 44.8946L28.3205 42.6842L28.0713 42.7164L28.3576 44.9268L28.6068 44.8946ZM27.8819 45.706C28.1034 45.6773 28.2983 45.5902 28.4325 45.4487C28.569 45.3047 28.635 45.1121 28.6068 44.8946L28.3576 44.9268C28.3763 45.0708 28.3337 45.1877 28.2502 45.2758C28.1644 45.3663 28.0277 45.4337 27.8496 45.4568L27.8819 45.706ZM26.9792 45.1054C27.0074 45.3229 27.1201 45.4922 27.288 45.5967C27.4531 45.6995 27.6626 45.7344 27.8819 45.706L27.8496 45.4568C27.6744 45.4795 27.5263 45.4491 27.4208 45.3834C27.318 45.3194 27.247 45.2171 27.2284 45.0731L26.9792 45.1054ZM26.6929 42.895L26.9792 45.1054L27.2284 45.0731L26.9421 42.8627L26.6929 42.895ZM26.1188 43.096L26.8336 43.0034L26.8014 42.7542L26.0866 42.8468L26.1188 43.096ZM26.5168 45.1904L26.2273 42.9553L25.9781 42.9875L26.2676 45.2227L26.5168 45.1904ZM27.9322 46.094C27.5422 46.1445 27.2092 46.0843 26.9661 45.933C26.7265 45.7839 26.5619 45.5389 26.5168 45.1904L26.2676 45.2227C26.3217 45.6402 26.5249 45.9544 26.8334 46.1463C27.1385 46.3362 27.534 46.3989 27.9644 46.3432L27.9322 46.094ZM30.8905 43.4798L31.6282 45.4946L31.8641 45.4082L31.1264 43.3934L30.8905 43.4798ZM30.9887 43.31L30.9652 43.3186L31.0516 43.5545L31.0751 43.546L30.9887 43.31ZM33.2348 44.8303L31.1043 43.3254L30.9594 43.5306L33.0899 45.0355L33.2348 44.8303ZM33.7037 44.6009L33.1191 44.8149L33.2055 45.0509L33.7901 44.8368L33.7037 44.6009ZM32.4568 41.5608L33.629 44.762L33.8649 44.6757L32.6928 41.4744L32.4568 41.5608ZM31.9443 41.8822L32.618 41.6356L32.5316 41.3996L31.8579 41.6463L31.9443 41.8822ZM32.7562 43.7344L32.0191 41.7211L31.7831 41.8075L32.5203 43.8208L32.7562 43.7344ZM32.6533 43.9058L32.6814 43.8955L32.5951 43.6596L32.5669 43.6699L32.6533 43.9058ZM30.4184 42.3829L32.5373 43.8902L32.6829 43.6855L30.564 42.1782L30.4184 42.3829ZM29.9404 42.616L30.5344 42.3985L30.448 42.1626L29.854 42.38L29.9404 42.616ZM31.1873 45.6561L30.0152 42.4548L29.7792 42.5412L30.9514 45.7424L31.1873 45.6561ZM31.703 45.3335L31.0261 45.5813L31.1125 45.8172L31.7893 45.5694L31.703 45.3335ZM34.1942 40.8154L35.8947 43.7701L36.1124 43.6448L34.4119 40.6901L34.1942 40.8154ZM33.741 41.2212L34.3657 40.8616L34.2404 40.6439L33.6157 41.0034L33.741 41.2212ZM35.4877 44.0043L33.7872 41.0496L33.5695 41.1749L35.27 44.1297L35.4877 44.0043ZM35.9409 43.5986L35.3162 43.9581L35.4415 44.1759L36.0662 43.8163L35.9409 43.5986ZM36.8858 39.6586L38.6661 41.8389L38.8607 41.68L37.0804 39.4997L36.8858 39.6586ZM37.7121 38.8217L36.9036 39.4818L37.0625 39.6765L37.871 39.0163L37.7121 38.8217ZM37.3184 38.5382L37.6942 38.9985L37.8888 38.8396L37.513 38.3793L37.3184 38.5382ZM35.3264 40.3269L37.4951 38.556L37.3362 38.3614L35.1675 40.1322L35.3264 40.3269ZM35.7201 40.6104L35.3443 40.1501L35.1496 40.309L35.5255 40.7693L35.7201 40.6104ZM36.3518 39.9324L35.5434 40.5925L35.7023 40.7872L36.5107 40.1271L36.3518 39.9324ZM38.3088 42.1306L36.5285 39.9503L36.3339 40.1092L38.1142 42.2895L38.3088 42.1306ZM38.6839 41.6622L38.1321 42.1128L38.291 42.3074L38.8428 41.8568L38.6839 41.6622ZM40.8629 37.999L41.8043 38.7514L41.9612 38.5552L41.0197 37.8027L40.8629 37.999ZM39.8795 35.6005L40.8248 37.9478L41.0578 37.8539L40.1125 35.5066L39.8795 35.6005ZM39.5901 36.2626L40.0942 35.632L39.8979 35.4751L39.3938 36.1058L39.5901 36.2626ZM40.2687 37.6581L39.6072 36.1342L39.3767 36.2342L40.0383 37.7581L40.2687 37.6581ZM40.2308 37.8125L40.2516 37.7865L40.0554 37.6296L40.0346 37.6556L40.2308 37.8125ZM38.4771 37.5481L40.1093 37.8575L40.1561 37.6107L38.5239 37.3013L38.4771 37.5481ZM38.0946 38.1338L38.5987 37.5031L38.4024 37.3463L37.8983 37.9769L38.0946 38.1338ZM40.5145 38.336L38.0166 37.9313L37.9764 38.1794L40.4743 38.584L40.5145 38.336ZM41.5143 39.1143L40.5728 38.3619L40.416 38.5581L41.3574 39.3106L41.5143 39.1143ZM41.7846 38.5749L41.3377 39.134L41.534 39.2909L41.9809 38.7317L41.7846 38.5749ZM43.8825 31.8756C44.3833 31.8756 44.7894 31.4696 44.7894 30.9688H44.5381C44.5381 31.3308 44.2446 31.6244 43.8825 31.6244V31.8756ZM42.9756 30.9688C42.9756 31.4696 43.3816 31.8756 43.8825 31.8756V31.6244C43.5204 31.6244 43.2269 31.3308 43.2269 30.9688H42.9756ZM43.8825 30.0619C43.3816 30.0619 42.9756 30.4679 42.9756 30.9688H43.2269C43.2269 30.6067 43.5204 30.3131 43.8825 30.3131V30.0619ZM44.7894 30.9688C44.7894 30.4679 44.3833 30.0619 43.8825 30.0619V30.3131C44.2446 30.3131 44.5381 30.6067 44.5381 30.9688H44.7894ZM8.60061 30.9688C8.60061 31.3308 8.30708 31.6244 7.94499 31.6244V31.8756C8.44584 31.8756 8.85186 31.4696 8.85186 30.9688H8.60061ZM7.94499 30.3131C8.30708 30.3131 8.60061 30.6067 8.60061 30.9688H8.85186C8.85186 30.4679 8.44584 30.0619 7.94499 30.0619V30.3131ZM7.28936 30.9688C7.28936 30.6067 7.5829 30.3131 7.94499 30.3131V30.0619C7.44413 30.0619 7.03811 30.4679 7.03811 30.9688H7.28936ZM7.94499 31.6244C7.5829 31.6244 7.28936 31.3308 7.28936 30.9688H7.03811C7.03811 31.4696 7.44413 31.8756 7.94499 31.8756V31.6244ZM32.7796 23.839C32.9131 22.847 32.6015 22.0843 31.9985 21.4877C31.4018 20.8974 30.5245 20.4738 29.5293 20.1361L29.4485 20.374C30.4322 20.7078 31.266 21.1165 31.8218 21.6663C32.3712 22.2098 32.6532 22.8949 32.5306 23.8055L32.7796 23.839ZM30.6902 26.2436C31.2307 26.1203 31.7046 25.8814 32.0688 25.4871C32.433 25.0927 32.6789 24.552 32.7795 23.8398L32.5307 23.8047C32.4357 24.4774 32.2068 24.9673 31.8842 25.3166C31.5616 25.666 31.1368 25.8841 30.6343 25.9986L30.6902 26.2436ZM32.2667 29.9474C32.5992 28.9555 32.5898 28.1576 32.2983 27.5082C32.0076 26.8605 31.446 26.3826 30.7197 26.0094L30.6049 26.2328C31.3033 26.5917 31.8104 27.0347 32.0691 27.6111C32.327 28.1858 32.3478 28.915 32.0285 29.8676L32.2667 29.9474ZM26.6453 32.2135C27.9856 32.452 29.1788 32.5212 30.1443 32.2111C31.1213 31.8974 31.8505 31.2002 32.2668 29.9471L32.0284 29.8679C31.6345 31.0536 30.9599 31.6853 30.0674 31.9719C29.1634 32.2622 28.0216 32.2032 26.6893 31.9661L26.6453 32.2135ZM26.1749 34.716L26.7895 32.1187L26.545 32.0609L25.9304 34.6582L26.1749 34.716ZM24.4587 34.4315L26.0232 34.8092L26.0821 34.565L24.5177 34.1873L24.4587 34.4315ZM24.9807 31.7247L24.366 34.28L24.6103 34.3388L25.2249 31.7834L24.9807 31.7247ZM23.8226 31.5584C24.2615 31.6753 24.677 31.7781 25.0726 31.876L25.133 31.6321C24.7371 31.5341 24.3237 31.4318 23.8873 31.3156L23.8226 31.5584ZM23.3625 34.0401L23.9771 31.4661L23.7328 31.4078L23.1181 33.9818L23.3625 34.0401ZM21.6464 33.7554L23.2109 34.1331L23.2698 33.8888L21.7053 33.5111L21.6464 33.7554ZM22.1682 31.007L21.5536 33.6043L21.7981 33.6622L22.4127 31.0649L22.1682 31.007ZM21.5953 30.9874C21.8229 31.0421 22.0437 31.0952 22.2555 31.1566L22.3255 30.9153C22.1071 30.852 21.8805 30.7976 21.654 30.7431L21.5953 30.9874ZM21.1507 30.8778C21.2999 30.9165 21.449 30.9523 21.5953 30.9874L21.654 30.7431C21.5073 30.7079 21.3605 30.6726 21.2139 30.6346L21.1507 30.8778ZM19.1144 30.4029L21.1538 30.8785L21.2108 30.6338L19.1714 30.1582L19.1144 30.4029ZM19.767 28.4283L19.0267 30.2328L19.2591 30.3282L19.9995 28.5236L19.767 28.4283ZM20.9444 28.8445C20.94 28.84 20.9087 28.8096 20.9079 28.7581C20.9068 28.6885 20.9572 28.6539 20.9774 28.6439C20.9969 28.6342 21.0139 28.6322 21.0183 28.6317C21.0251 28.6309 21.0304 28.6309 21.033 28.6309C21.0411 28.631 21.0462 28.6321 21.0426 28.6315C21.0387 28.6309 21.03 28.6293 21.0152 28.6261C20.9866 28.6201 20.9437 28.6103 20.8904 28.5976C20.7842 28.5725 20.6405 28.537 20.4957 28.5009C20.3509 28.4648 20.2056 28.4282 20.0964 28.4005C20.0418 28.3867 19.9963 28.3751 19.9644 28.367C19.9485 28.3629 19.9359 28.3597 19.9274 28.3576C19.9231 28.3565 19.9199 28.3556 19.9176 28.3551C19.9165 28.3548 19.9157 28.3546 19.9152 28.3544C19.9149 28.3544 19.9147 28.3543 19.9145 28.3543C19.9145 28.3543 19.9144 28.3542 19.9144 28.3542C19.9144 28.3542 19.9143 28.3542 19.9143 28.3542C19.9143 28.3542 19.9143 28.3542 19.8832 28.4759C19.8522 28.5977 19.8522 28.5977 19.8522 28.5977C19.8522 28.5977 19.8522 28.5977 19.8522 28.5977C19.8522 28.5977 19.8523 28.5977 19.8524 28.5977C19.8525 28.5977 19.8527 28.5978 19.853 28.5979C19.8536 28.598 19.8544 28.5982 19.8555 28.5985C19.8577 28.5991 19.861 28.5999 19.8653 28.601C19.8739 28.6032 19.8865 28.6064 19.9024 28.6105C19.9344 28.6186 19.98 28.6302 20.0347 28.6441C20.1441 28.6718 20.2897 28.7085 20.4349 28.7447C20.5799 28.7809 20.7248 28.8166 20.8325 28.8421C20.8861 28.8548 20.9315 28.8653 20.9633 28.872C20.9786 28.8752 20.9931 28.8781 21.0043 28.8798C21.0082 28.8804 21.0188 28.8821 21.0303 28.8822C21.0337 28.8822 21.0397 28.8822 21.0471 28.8813C21.0521 28.8807 21.0695 28.8787 21.0892 28.8689C21.1097 28.8587 21.1602 28.8239 21.1591 28.7541C21.1583 28.7023 21.127 28.6717 21.1222 28.667L20.9444 28.8445ZM21.6292 28.3309C21.5947 28.4163 21.5368 28.5117 21.4488 28.5751C21.3656 28.635 21.2445 28.6747 21.061 28.6332L21.0056 28.8783C21.2551 28.9347 21.4507 28.8834 21.5956 28.779C21.7358 28.678 21.8175 28.5356 21.8622 28.4251L21.6292 28.3309ZM22.5732 24.2462L21.6233 28.3497L21.8681 28.4063L22.818 24.3029L22.5732 24.2462ZM22.7983 24.1698C22.7739 24.1652 22.7555 24.1616 22.7326 24.1545L22.6586 24.3946C22.6961 24.4062 22.7266 24.4119 22.7512 24.4166L22.7983 24.1698ZM22.8909 24.1918C22.8533 24.1802 22.8228 24.1745 22.7983 24.1698L22.7512 24.4166C22.7755 24.4212 22.7939 24.4248 22.8169 24.4319L22.8909 24.1918ZM22.7134 24.3883C22.7458 24.3967 22.7633 24.4019 22.7823 24.4151L22.9255 24.2086C22.8661 24.1675 22.8092 24.1536 22.7761 24.145L22.7134 24.3883ZM22.6445 24.366C22.6706 24.3776 22.6979 24.3843 22.7134 24.3883L22.7761 24.145C22.7559 24.1398 22.7501 24.138 22.7466 24.1365L22.6445 24.366ZM23.2671 21.2893L22.5733 24.2223L22.8178 24.2802L23.5116 21.3471L23.2671 21.2893ZM22.6278 20.5494C22.92 20.6226 23.0789 20.7504 23.1648 20.8821C23.2521 21.0158 23.2743 21.1692 23.264 21.309L23.5146 21.3274C23.5276 21.1501 23.5009 20.9374 23.3752 20.7448C23.2482 20.55 23.0298 20.3911 22.6888 20.3057L22.6278 20.5494ZM21.5315 20.1478C21.5046 20.2705 21.5046 20.2705 21.5046 20.2705C21.5046 20.2705 21.5046 20.2705 21.5046 20.2705C21.5047 20.2705 21.5047 20.2705 21.5048 20.2705C21.5049 20.2705 21.5051 20.2706 21.5054 20.2707C21.506 20.2708 21.5068 20.271 21.5079 20.2712C21.5101 20.2717 21.5133 20.2724 21.5176 20.2733C21.5261 20.2752 21.5386 20.278 21.5545 20.2815C21.5863 20.2885 21.6317 20.2986 21.686 20.3108C21.7947 20.3352 21.9391 20.3678 22.0821 20.4012C22.2253 20.4347 22.366 20.4686 22.4679 20.4955C22.5194 20.509 22.5584 20.5202 22.5825 20.5281C22.596 20.5326 22.5987 20.5341 22.596 20.5327C22.5948 20.5321 22.5914 20.5304 22.5869 20.5274C22.5836 20.5252 22.5732 20.5181 22.5626 20.5055C22.5537 20.495 22.5272 20.4595 22.5352 20.4073C22.5436 20.3525 22.5824 20.326 22.5972 20.3178L22.7194 20.5373C22.7356 20.5283 22.7751 20.501 22.7836 20.4452C22.7917 20.3921 22.7648 20.3556 22.7549 20.3439C22.7357 20.321 22.7122 20.31 22.7092 20.3084C22.6939 20.3007 22.6758 20.2943 22.6614 20.2896C22.6295 20.279 22.5842 20.2663 22.5319 20.2525C22.4265 20.2247 22.2829 20.1902 22.1392 20.1566C21.9952 20.123 21.8501 20.0901 21.7409 20.0656C21.6864 20.0534 21.6408 20.0433 21.6088 20.0362C21.5928 20.0326 21.5803 20.0299 21.5717 20.028C21.5674 20.027 21.5641 20.0263 21.5619 20.0258C21.5607 20.0256 21.5599 20.0254 21.5593 20.0253C21.559 20.0252 21.5588 20.0251 21.5587 20.0251C21.5586 20.0251 21.5585 20.0251 21.5585 20.0251C21.5585 20.0251 21.5585 20.0251 21.5585 20.0251C21.5585 20.0251 21.5584 20.0251 21.5315 20.1478ZM21.8051 18.454L21.4093 20.1187L21.6537 20.1768L22.0495 18.5121L21.8051 18.454ZM24.1124 18.8785L21.9566 18.3609L21.898 18.6052L24.0538 19.1228L24.1124 18.8785ZM24.6138 18.9872C24.4447 18.9522 24.2776 18.9176 24.112 18.8784L24.0542 19.1229C24.2238 19.163 24.3943 19.1983 24.5628 19.2333L24.6138 18.9872ZM25.1224 19.0976C24.9528 19.0575 24.7823 19.0221 24.6138 18.9872L24.5628 19.2333C24.7319 19.2683 24.8989 19.3029 25.0646 19.3421L25.1224 19.0976ZM25.5859 16.6167L24.9713 19.1906L25.2157 19.249L25.8303 16.675L25.5859 16.6167ZM27.3204 16.9013L25.7373 16.5236L25.679 16.768L27.2621 17.1457L27.3204 16.9013ZM26.8175 19.5705L27.4135 17.0525L27.169 16.9946L26.573 19.5126L26.8175 19.5705ZM27.972 19.6991C27.5576 19.6012 27.1368 19.5028 26.7202 19.4184L26.6703 19.6647C27.0825 19.7482 27.4997 19.8457 27.9142 19.9436L27.972 19.6991ZM28.4168 17.2744L27.8208 19.7924L28.0653 19.8503L28.6613 17.3323L28.4168 17.2744ZM30.133 17.5589L28.5685 17.1812L28.5096 17.4254L30.074 17.8031L30.133 17.5589ZM29.6111 20.2842L30.2257 17.7102L29.9813 17.6518L29.3667 20.2258L29.6111 20.2842ZM29.0127 28.8436C28.9161 29.2554 28.6846 29.5176 28.3704 29.6811C28.0507 29.8473 27.6401 29.9136 27.1902 29.9147C26.2898 29.9168 25.2817 29.6586 24.65 29.4963L24.5875 29.7397C25.2138 29.9005 26.2529 30.1681 27.1907 30.1659C27.6599 30.1649 28.1162 30.0965 28.4863 29.904C28.8619 29.7086 29.1431 29.3879 29.2573 28.901L29.0127 28.8436ZM25.5396 26.3127C26.2101 26.4572 27.1911 26.6696 27.9519 27.0673C28.3316 27.2658 28.6456 27.5051 28.8397 27.7951C29.0308 28.0805 29.1109 28.4222 29.0127 28.8438L29.2574 28.9008C29.3714 28.4117 29.2783 27.9987 29.0485 27.6554C28.8218 27.3166 28.4671 27.0531 28.0683 26.8446C27.2721 26.4284 26.2564 26.2102 25.5926 26.0671L25.5396 26.3127ZM25.1243 26.2198C25.24 26.2481 25.3817 26.2786 25.5396 26.3127L25.5926 26.0671C25.4335 26.0327 25.2955 26.003 25.1838 25.9757L25.1243 26.2198ZM24.4661 29.5771L25.2763 26.1265L25.0317 26.0691L24.2215 29.5197L24.4661 29.5771ZM24.65 29.4963C24.5473 29.4699 24.4541 29.446 24.3736 29.4264L24.3141 29.6705C24.3928 29.6897 24.4844 29.7132 24.5875 29.7397L24.65 29.4963ZM29.4458 23.7935C29.3575 24.169 29.1578 24.4085 28.8935 24.5595C28.6244 24.7133 28.2805 24.7794 27.9032 24.7874C27.147 24.8035 26.3045 24.5865 25.777 24.4501L25.7141 24.6933C26.2358 24.8282 27.112 25.0556 27.9085 25.0386C28.3074 25.0301 28.6984 24.9604 29.0182 24.7777C29.3428 24.5922 29.5861 24.2946 29.6904 23.851L29.4458 23.7935ZM26.6014 21.5873C27.156 21.7061 27.9701 21.8814 28.5973 22.2255C28.9099 22.3969 29.1658 22.6049 29.3213 22.859C29.4744 23.109 29.5362 23.4129 29.4459 23.7932L29.6903 23.8513C29.7953 23.4095 29.725 23.0371 29.5356 22.7278C29.3487 22.4225 29.0518 22.1881 28.7182 22.0052C28.0531 21.6404 27.2016 21.4589 26.654 21.3416L26.6014 21.5873ZM26.2554 21.5101C26.3511 21.5337 26.4695 21.559 26.6014 21.5873L26.654 21.3416C26.5208 21.3131 26.4067 21.2886 26.3155 21.2662L26.2554 21.5101ZM25.6533 24.5465L26.4076 21.4176L26.1633 21.3587L25.409 24.4876L25.6533 24.5465ZM25.777 24.4501C25.6975 24.4295 25.6248 24.4107 25.5612 24.3951L25.5011 24.639C25.563 24.6543 25.6342 24.6727 25.7141 24.6933L25.777 24.4501Z" fill="black"/>
</svg>